<svg xmlns="http://www.w3.org/2000/svg" viewBox="0 0 400 300">
  <defs>
    <linearGradient id="grad1" x1="0%" y1="0%" x2="100%" y2="100%">
      <stop offset="0%" style="stop-color:#1a1a2e;stop-opacity:1" />
      <stop offset="100%" style="stop-color:#16213e;stop-opacity:1" />
    </linearGradient>
  </defs>
  
  <!-- Background -->
  <rect width="400" height="300" fill="url(#grad1)"/>
  
  <!-- Roulette wheel circle -->
  <circle cx="200" cy="120" r="80" fill="none" stroke="#ff6b9d" stroke-width="3"/>
  
  <!-- Pie segments -->
  <path d="M 200 40 A 80 80 0 0 1 256.57 56.57 L 200 120 Z" fill="#ff6b9d" opacity="0.3"/>
  <path d="M 256.57 56.57 A 80 80 0 0 1 280 120 L 200 120 Z" fill="#00d4ff" opacity="0.3"/>
  <path d="M 280 120 A 80 80 0 0 1 256.57 183.43 L 200 120 Z" fill="#ffff00" opacity="0.3"/>
  <path d="M 256.57 183.43 A 80 80 0 0 1 143.43 183.43 L 200 120 Z" fill="#44ff44" opacity="0.3"/>
  <path d="M 143.43 183.43 A 80 80 0 0 1 120 120 L 200 120 Z" fill="#ff00ff" opacity="0.3"/>
  <path d="M 120 120 A 80 80 0 0 1 143.43 56.57 L 200 120 Z" fill="#00ffff" opacity="0.3"/>
  
  <!-- Center circle -->
  <circle cx="200" cy="120" r="15" fill="#00d4ff"/>
  
  <!-- Arrow pointer -->
  <polygon points="200,30 210,50 190,50" fill="#ffff00"/>
  
  <!-- Title -->
  <text x="200" y="280" font-size="18" text-anchor="middle" fill="#ff6b9d" font-weight="bold">الروليت</text>
</svg>