<svg viewBox="0 0 800 400" xmlns="http://www.w3.org/2000/svg">
  <!-- Background Gradient -->
  <defs>
    <linearGradient id="bgGradient" x1="0%" y1="0%" x2="100%" y2="100%">
      <stop offset="0%" style="stop-color:#1a1a2e;stop-opacity:1" />
      <stop offset="100%" style="stop-color:#16213e;stop-opacity:1" />
    </linearGradient>
    <linearGradient id="chairGradient" x1="0%" y1="0%" x2="100%" y2="100%">
      <stop offset="0%" style="stop-color:#ff6b9d;stop-opacity:1" />
      <stop offset="100%" style="stop-color:#c44569;stop-opacity:1" />
    </linearGradient>
  </defs>
  
  <!-- Background -->
  <rect width="800" height="400" fill="url(#bgGradient)"/>
  
  <!-- Title -->
  <text x="400" y="50" font-size="48" font-weight="bold" text-anchor="middle" fill="#00d4ff" font-family="Arial">
    ๐ช ุฌููุฉ ุงููุฑุงุณู
  </text>
  
  <!-- Subtitle -->
  <text x="400" y="90" font-size="24" text-anchor="middle" fill="#88ccff" font-family="Arial">
    ุงููุฑุงุณู ุงูููุณูููุฉ - ูุนุจุฉ ุชูุงุนููุฉ
  </text>
  
  <!-- Circle of Chairs -->
  <!-- Chair 1 (Top) -->
  <g transform="translate(400, 100)">
    <!-- Seat -->
    <rect x="-25" y="-15" width="50" height="40" fill="url(#chairGradient)" rx="3"/>
    <!-- Legs -->
    <line x1="-20" y1="25" x2="-20" y2="45" stroke="#ff6b9d" stroke-width="3"/>
    <line x1="20" y1="25" x2="20" y2="45" stroke="#ff6b9d" stroke-width="3"/>
  </g>
  
  <!-- Chair 2 (Right) -->
  <g transform="translate(550, 180) rotate(90)">
    <rect x="-25" y="-15" width="50" height="40" fill="url(#chairGradient)" rx="3"/>
    <line x1="-20" y1="25" x2="-20" y2="45" stroke="#ff6b9d" stroke-width="3"/>
    <line x1="20" y1="25" x2="20" y2="45" stroke="#ff6b9d" stroke-width="3"/>
  </g>
  
  <!-- Chair 3 (Bottom) -->
  <g transform="translate(400, 320) rotate(180)">
    <rect x="-25" y="-15" width="50" height="40" fill="url(#chairGradient)" rx="3"/>
    <line x1="-20" y1="25" x2="-20" y2="45" stroke="#ff6b9d" stroke-width="3"/>
    <line x1="20" y1="25" x2="20" y2="45" stroke="#ff6b9d" stroke-width="3"/>
  </g>
  
  <!-- Chair 4 (Left) -->
  <g transform="translate(250, 180) rotate(270)">
    <rect x="-25" y="-15" width="50" height="40" fill="url(#chairGradient)" rx="3"/>
    <line x1="-20" y1="25" x2="-20" y2="45" stroke="#ff6b9d" stroke-width="3"/>
    <line x1="20" y1="25" x2="20" y2="45" stroke="#ff6b9d" stroke-width="3"/>
  </g>
  
  <!-- Center Player (Standing) -->
  <circle cx="400" cy="210" r="20" fill="#00ff00" opacity="0.8"/>
  <circle cx="400" cy="210" r="20" fill="none" stroke="#ffff00" stroke-width="2"/>
  
  <!-- Music Note (Floating) -->
  <g transform="translate(650, 100)">
    <path d="M 0 0 Q 5 -10 10 -5" stroke="#ffff00" stroke-width="2" fill="none"/>
    <circle cx="2" cy="5" r="3" fill="#ffff00"/>
    <circle cx="10" cy="0" r="3" fill="#ffff00"/>
  </g>
  
  <!-- Players count indicator -->
  <text x="400" y="370" font-size="20" text-anchor="middle" fill="#44ff44" font-family="Arial">
    ๐ฅ 2-20 ูุงุนุจ | โฑ๏ธ ุฌููุฉ ูุงุญุฏุฉ = ุงุณุชุจุนุงุฏ ูุงุนุจ ูุงุญุฏ
  </text>
</svg>